# xmcd
#
# Track frame offsets:
#	150
#	17602
#	30317
#	51705
#	67467
#	84350
#	97704
#	109895
#	125470
#	144847
#	161207
#	177787
#	192455
#	212912
#	235620
#	252965
#
# Disc length: 3600 seconds
#
# Revision: 4
# Processed by: cddbd v1.5.2PL0 Copyright (c) Steve Scherf et al.
# Submitted via: audiograbber 1.83.01
#
DISCID=dc0e0e10
DTITLE=MH1065 Monster Hits - Female Country Hits (MH)
DYEAR=2008
DGENRE=Karaoke
TTITLE0=Pam Tillis - Don't Tell Me What To Do (MH)
TTITLE1=Trisha Yearwood - Wrong Side Of Memphis (MH)
TTITLE2=Wynonna Judd - She Is His Only Need (MH)
TTITLE3=Patty Loveless - You Can Feel Bad (MH)
TTITLE4=Martina McBride - Wild Angels (MH)
TTITLE5=Lorrie Morgan - Except For Monday (MH)
TTITLE6=Tanya Tucker - It's A Little Too Late (MH)
TTITLE7=Kathy Mattea - Walking Away A Winner (MH)
TTITLE8=Alison Krauss And Union Station - When You Say Nothing At All (MH)
TTITLE9=Mindy McCready - Ten Thousand Angels (MH)
TTITLE10=Reba McEntire - How Was I To Know (MH)
TTITLE11=Faith Hill - It Matters To Me (MH)
TTITLE12=Shania Twain - You Win My Love (MH)
TTITLE13=Deana Carter - Strawberry Wine (MH)
TTITLE14=KT Oslin - Come Next Monday (MH)
TTITLE15=Mary Chapin Carpenter - Shut Up And Kiss Me (MH)
EXTD=
EXTT0=
EXTT1=
EXTT2=
EXTT3=
EXTT4=
EXTT5=
EXTT6=
EXTT7=
EXTT8=
EXTT9=
EXTT10=
EXTT11=
EXTT12=
EXTT13=
EXTT14=
EXTT15=
PLAYORDER=
